<svg width="16" height="17" viewBox="0 0 16 17" fill="none" xmlns="http://www.w3.org/2000/svg">
<path d="M8.28972 0.0595703C8.98171 0.059525 9.64748 0.324277 10.1505 0.799516C10.6534 1.27475 10.9555 1.92445 10.9947 2.61533L10.9989 2.76871H15.3752C15.5336 2.76875 15.686 2.82893 15.8018 2.93707C15.9175 3.04521 15.9879 3.19325 15.9987 3.35128C16.0095 3.50931 15.9599 3.66555 15.8599 3.78842C15.76 3.9113 15.6171 3.99165 15.4602 4.01324L15.3752 4.01908H14.7116L13.6446 14.8723C13.5912 15.4134 13.3471 15.9178 12.9561 16.2956C12.565 16.6734 12.0524 16.8998 11.5098 16.9346L11.3631 16.9396H5.21631C4.67236 16.9396 4.14615 16.7461 3.73171 16.3938C3.31726 16.0415 3.0416 15.5533 2.95397 15.0165L2.9348 14.8715L1.86698 4.01908H1.20429C1.05321 4.01907 0.907247 3.96436 0.793389 3.86506C0.679532 3.76576 0.605483 3.62859 0.584937 3.47892L0.579102 3.39389C0.579108 3.24282 0.63382 3.09685 0.73312 2.98299C0.832419 2.86914 0.969589 2.79509 1.11926 2.77454L1.20429 2.76871H5.58058C5.58058 2.0502 5.86601 1.36112 6.37407 0.853058C6.88213 0.344996 7.57121 0.0595703 8.28972 0.0595703ZM13.4554 4.01908H3.12319L4.17933 14.7489C4.20272 14.9883 4.30823 15.2123 4.47794 15.3828C4.64766 15.5532 4.87114 15.6597 5.11044 15.6842L5.21631 15.6892H11.3631C11.8633 15.6892 12.2876 15.3349 12.3843 14.854L12.4009 14.7489L13.4546 4.01908H13.4554ZM9.74848 6.31142C9.89956 6.31143 10.0455 6.36614 10.1594 6.46544C10.2732 6.56474 10.3473 6.70191 10.3678 6.85158L10.3737 6.93661V12.7717C10.3736 12.9301 10.3134 13.0825 10.2053 13.1983C10.0972 13.314 9.94913 13.3844 9.7911 13.3952C9.63307 13.406 9.47683 13.3564 9.35395 13.2565C9.23108 13.1565 9.15073 13.0136 9.12913 12.8567L9.1233 12.7717V6.93661C9.1233 6.7708 9.18917 6.61178 9.30641 6.49453C9.42366 6.37729 9.58267 6.31142 9.74848 6.31142ZM6.83095 6.31142C6.98203 6.31143 7.12799 6.36614 7.24185 6.46544C7.35571 6.56474 7.42976 6.70191 7.4503 6.85158L7.45614 6.93661V12.7717C7.45609 12.9301 7.39592 13.0825 7.28778 13.1983C7.17964 13.314 7.0316 13.3844 6.87357 13.3952C6.71553 13.406 6.5593 13.3564 6.43642 13.2565C6.31355 13.1565 6.23319 13.0136 6.2116 12.8567L6.20577 12.7717V6.93661C6.20577 6.7708 6.27164 6.61178 6.38888 6.49453C6.50613 6.37729 6.66514 6.31142 6.83095 6.31142ZM8.28972 1.30994C7.92362 1.30995 7.57091 1.44762 7.3016 1.69562C7.03229 1.94362 6.86608 2.28381 6.83595 2.64867L6.83095 2.76871H9.74848C9.74848 2.38182 9.59479 2.01077 9.32122 1.7372C9.04765 1.46363 8.67661 1.30994 8.28972 1.30994Z" fill="#5F66E9"/>
</svg>
