<svg width="100" height="36" viewBox="0 0 100 36" fill="none" xmlns="http://www.w3.org/2000/svg">
<path d="M6.71629 0L5.0355 4.75151H28.3192L30 0H6.71629ZM4.19609 7.12525L2.51531 11.8758H25.799L27.4798 7.12525C27.4798 7.12525 4.19609 7.12525 4.19609 7.12525ZM1.68078 14.2505L0 19H23.2837L24.9625 14.2495C24.9635 14.2505 1.68078 14.2505 1.68078 14.2505Z" fill="#009FDF"/>
<path d="M50.6254 20.0792V20.1758C51.6937 20.5632 52.7151 21.2415 53.2493 21.6773C54.9008 23.0339 55.6306 24.8254 55.6306 27.1501C55.6306 30.9785 53.5898 33.738 50.236 34.6106C49.2146 34.9014 48.1462 34.998 46.1543 34.998H36V7H44.9901C46.8372 7 48.0993 7.09662 49.2166 7.38648C52.4725 8.25901 54.6112 10.4872 54.6112 14.0227C54.6112 15.9127 53.9313 17.5118 52.814 18.5766C52.3277 19.0607 51.6478 19.6424 50.6274 20.0782L50.6254 20.0792ZM41.6363 23.0339V30.3968H45.5243C46.6895 30.3968 47.7598 30.3001 48.5366 29.5735C49.3144 28.8469 49.6539 27.9261 49.6539 26.7154C49.6539 25.7965 49.4103 24.9239 48.925 24.2939C48.0993 23.2765 47.0779 23.0339 45.3296 23.0339H41.6353H41.6363ZM41.5864 18.1892H44.7455C45.717 18.1892 46.2032 18.1892 46.6885 18.0442C48.0014 17.6558 48.8272 16.4954 48.8272 14.8962C48.8272 13.0072 47.9525 12.183 46.6885 11.7965C46.1533 11.6506 45.6201 11.6032 44.5508 11.6032H41.5864V18.1901V18.1892ZM64.0856 34.999V11.6989H55.9711V7.00099H78.5192L76.9157 11.6989H69.7228V34.999H64.0856ZM80.2685 34.999V7.00099H98.5403L96.9367 11.6989H85.8579V17.9003H90.3779C94.0222 17.9003 95.9173 18.7728 97.2303 19.8859C98.2517 20.7585 100 22.6948 100 26.5231C100 30.3011 98.2028 32.3834 96.6951 33.4501C94.9458 34.6599 93.0997 35 89.3565 35H80.2695H80.2685V34.999ZM85.8569 30.2992H90.0843C91.6879 30.2992 92.6594 29.9117 93.3393 29.0392C93.6788 28.6044 94.165 27.8275 94.165 26.3752C94.165 24.923 93.6788 23.9045 92.7073 23.1779C92.1252 22.7431 91.3464 22.5015 90.0344 22.5015H85.8549V30.2992H85.8569Z" fill="#0A2973"/>
</svg>
