<svg width="24" height="24" viewBox="0 0 24 24" fill="none" xmlns="http://www.w3.org/2000/svg">
<circle cx="12" cy="12" r="10" fill="#E2B000"/>
<path d="M13.295 13.75C15.6225 13.75 17.25 12.1242 17.25 9.7871C17.25 7.45 15.6225 5.875 13.295 5.875H8.82812C8.64692 5.875 8.5 6.02192 8.5 6.20312V11.8532H7.07812C6.89692 11.8532 6.75 12.0001 6.75 12.1813V13.4219C6.75 13.6031 6.89692 13.75 7.07812 13.75H8.5V14.625H7.07812C6.89692 14.625 6.75 14.7719 6.75 14.9531V16.0469C6.75 16.2281 6.89692 16.375 7.07812 16.375H8.5V17.7969C8.5 17.9781 8.64692 18.125 8.82812 18.125H10.4294C10.6106 18.125 10.7575 17.9781 10.7575 17.7969V16.375H15.1719C15.3531 16.375 15.5 16.2281 15.5 16.0469V14.9531C15.5 14.7719 15.3531 14.625 15.1719 14.625H10.7575V13.75H13.295ZM10.7575 7.75483H12.91C14.1875 7.75483 14.9575 8.5508 14.9575 9.7871C14.9575 11.0403 14.1875 11.8532 12.875 11.8532H10.7575V7.75483V7.75483Z" fill="white"/>
</svg>
